PathFileType	4	(X/Y/Z)	E:/New_biomech_experiments/TO UPLOAD/12_06_2024_Shreyas_StaticPose.trc	
DataRate	CameraRate	NumFrames	NumMarkers	Units	OrigDataRate	OrigDataStartFrame	OrigNumFrames	
120.00	120.00	6	57	m	120.00	1	440	
Frame#	Time	 PLSHO			 LELB			 LBHD			 C7			 LUPA			 PRSHO			 LTIB			 LFHD			 LKNE			 LFRM			 LSHO			 LASI			 CLAV			 RFRM			 RELB			 RSHO			 RUPA			 LWRA			 ALSHO			 T10			 MLFIN			 LPSI			 LWRB			 RFHD			 ARSHO			 MRTOE			 RTOE			 RWRA			 LHIP			 RBAK			 RKNE			 LLTOE			 LANK			 LHEE			 RHIP			 LTOE			 LRFIN			 RHEE			 STRN			 RANK			 MRFIN			 LTHG			 RTHG			 MLANK			 MRELB			 MLKNE			 RPSI			 RBHD			 RASI			 RWRB			 MRANK			 RTIB			 MRKNE			 MLELB			 LRTOE			 LLFIN			 MLTOE			
		X1	Y1	Z1	X2	Y2	Z2	X3	Y3	Z3	X4	Y4	Z4	X5	Y5	Z5	X6	Y6	Z6	X7	Y7	Z7	X8	Y8	Z8	X9	Y9	Z9	X10	Y10	Z10	X11	Y11	Z11	X12	Y12	Z12	X13	Y13	Z13	X14	Y14	Z14	X15	Y15	Z15	X16	Y16	Z16	X17	Y17	Z17	X18	Y18	Z18	X19	Y19	Z19	X20	Y20	Z20	X21	Y21	Z21	X22	Y22	Z22	X23	Y23	Z23	X24	Y24	Z24	X25	Y25	Z25	X26	Y26	Z26	X27	Y27	Z27	X28	Y28	Z28	X29	Y29	Z29	X30	Y30	Z30	X31	Y31	Z31	X32	Y32	Z32	X33	Y33	Z33	X34	Y34	Z34	X35	Y35	Z35	X36	Y36	Z36	X37	Y37	Z37	X38	Y38	Z38	X39	Y39	Z39	X40	Y40	Z40	X41	Y41	Z41	X42	Y42	Z42	X43	Y43	Z43	X44	Y44	Z44	X45	Y45	Z45	X46	Y46	Z46	X47	Y47	Z47	X48	Y48	Z48	X49	Y49	Z49	X50	Y50	Z50	X51	Y51	Z51	X52	Y52	Z52	X53	Y53	Z53	X54	Y54	Z54	X55	Y55	Z55	X56	Y56	Z56	X57	Y57	Z57	

1	0.000	-0.04082	1.51319	-0.16096	0.04957	1.50472	-0.46379	-0.00646	1.74190	-0.07352	-0.06982	1.47019	-0.02279	0.04330	1.52077	-0.35871	-0.06472	1.52025	0.12387	0.07757	0.38207	-0.18225	0.11223	1.82751	-0.06787	0.07245	0.55152	-0.18532	0.07278	1.49160	-0.59729	0.05137	1.57925	-0.14971	0.14896	1.08033	-0.14831	0.16527	1.47856	0.00455	0.02175	1.49715	0.58408	0.00108	1.50799	0.45189	0.02174	1.57733	0.13128	-0.00066	1.51502	0.33585	0.14331	1.42143	-0.74918	0.13235	1.50486	-0.14290	-0.07097	1.31570	-0.01558	0.04964	1.42506	-0.88087	-0.05332	1.08803	-0.08773	0.03822	1.42899	-0.77183	0.09402	1.82875	0.06094	0.09776	1.51052	0.13738	0.14524	0.02535	0.09966	0.13043	0.04631	0.17445	0.08456	1.44519	0.70892	0.05361	0.99344	-0.20326	-0.07694	1.38031	0.09143	0.04254	0.57064	0.15950	0.10559	0.01625	-0.27657	-0.02256	0.08931	-0.21509	-0.06958	0.02954	-0.15961	0.04155	1.00140	0.17876	0.14179	0.04087	-0.22590	0.10470	1.43847	0.84441	-0.07727	0.03021	0.09937	0.18274	1.32043	0.00673	-0.04870	0.07470	0.14809	-0.00788	1.42155	0.84563	0.15507	0.76364	-0.17265	0.13822	0.77182	0.15094	0.01770	0.08931	-0.12346	0.02016	1.38600	0.44437	0.07327	0.53660	-0.05464	-0.06812	1.09328	0.06445	-0.01968	1.74660	0.05312	0.13033	1.08239	0.11590	-0.01712	1.44562	0.72458	-0.00035	0.10234	0.07055	0.06184	0.38114	0.14574	0.04797	0.53594	0.01968	0.05820	1.38485	-0.46128	0.06866	0.01490	0.21580	0.16376	1.40697	-0.87481	0.14548	0.01949	-0.14678 
2	0.008	-0.04085	1.51321	-0.16099	0.04955	1.50479	-0.46381	-0.00649	1.74190	-0.07354	-0.06987	1.47021	-0.02281	0.04327	1.52082	-0.35873	-0.06473	1.52028	0.12382	0.07756	0.38208	-0.18226	0.11220	1.82751	-0.06788	0.07243	0.55152	-0.18534	0.07277	1.49170	-0.59730	0.05133	1.57927	-0.14973	0.14890	1.08033	-0.14832	0.16525	1.47859	0.00453	0.02166	1.49724	0.58403	0.00104	1.50808	0.45187	0.02167	1.57736	0.13122	-0.00069	1.51508	0.33584	0.14326	1.42154	-0.74925	0.13233	1.50488	-0.14291	-0.07101	1.31571	-0.01560	0.04963	1.42521	-0.88092	-0.05339	1.08803	-0.08775	0.03820	1.42910	-0.77186	0.09395	1.82872	0.06092	0.09772	1.51055	0.13737	0.14523	0.02535	0.09966	0.13043	0.04631	0.17444	0.08453	1.44531	0.70892	0.05350	0.99347	-0.20330	-0.07700	1.38027	0.09141	0.04253	0.57069	0.15947	0.10560	0.01626	-0.27656	-0.02256	0.08931	-0.21508	-0.06958	0.02955	-0.15962	0.04151	1.00140	0.17874	0.14179	0.04087	-0.22590	0.10467	1.43869	0.84443	-0.07728	0.03021	0.09938	0.18272	1.32045	0.00672	-0.04870	0.07469	0.14810	-0.00792	1.42171	0.84562	0.15504	0.76365	-0.17267	0.13819	0.77188	0.15094	0.01770	0.08930	-0.12346	0.02008	1.38607	0.44437	0.07326	0.53660	-0.05465	-0.06818	1.09328	0.06443	-0.01970	1.74660	0.05312	0.13028	1.08240	0.11587	-0.01718	1.44585	0.72453	-0.00034	0.10233	0.07055	0.06182	0.38115	0.14572	0.04793	0.53593	0.01966	0.05819	1.38492	-0.46132	0.06865	0.01490	0.21580	0.16375	1.40713	-0.87484	0.14548	0.01950	-0.14678 
3	0.017	-0.04087	1.51322	-0.16101	0.04953	1.50485	-0.46383	-0.00652	1.74190	-0.07355	-0.06993	1.47023	-0.02283	0.04324	1.52087	-0.35876	-0.06473	1.52030	0.12378	0.07756	0.38208	-0.18226	0.11217	1.82751	-0.06790	0.07241	0.55152	-0.18536	0.07275	1.49181	-0.59731	0.05130	1.57929	-0.14975	0.14883	1.08034	-0.14834	0.16523	1.47861	0.00452	0.02158	1.49734	0.58398	0.00101	1.50817	0.45185	0.02160	1.57738	0.13117	-0.00073	1.51514	0.33582	0.14321	1.42166	-0.74932	0.13232	1.50491	-0.14293	-0.07104	1.31572	-0.01561	0.04962	1.42536	-0.88096	-0.05345	1.08804	-0.08777	0.03819	1.42921	-0.77189	0.09388	1.82868	0.06089	0.09767	1.51057	0.13735	0.14523	0.02535	0.09965	0.13043	0.04631	0.17443	0.08451	1.44544	0.70893	0.05339	0.99350	-0.20333	-0.07704	1.38023	0.09141	0.04252	0.57075	0.15945	0.10560	0.01625	-0.27656	-0.02256	0.08931	-0.21508	-0.06957	0.02955	-0.15962	0.04147	1.00141	0.17872	0.14178	0.04086	-0.22589	0.10465	1.43890	0.84446	-0.07729	0.03021	0.09938	0.18270	1.32047	0.00672	-0.04869	0.07469	0.14810	-0.00795	1.42186	0.84561	0.15500	0.76366	-0.17268	0.13815	0.77190	0.15091	0.01769	0.08930	-0.12346	0.02001	1.38614	0.44436	0.07325	0.53660	-0.05466	-0.06824	1.09328	0.06440	-0.01972	1.74659	0.05311	0.13022	1.08241	0.11585	-0.01724	1.44606	0.72449	-0.00034	0.10232	0.07054	0.06180	0.38116	0.14571	0.04790	0.53593	0.01965	0.05818	1.38498	-0.46136	0.06864	0.01489	0.21579	0.16373	1.40730	-0.87487	0.14548	0.01950	-0.14678 
4	0.025	-0.04090	1.51324	-0.16104	0.04952	1.50491	-0.46386	-0.00655	1.74190	-0.07357	-0.06998	1.47025	-0.02285	0.04321	1.52092	-0.35878	-0.06473	1.52032	0.12372	0.07754	0.38208	-0.18227	0.11214	1.82751	-0.06791	0.07239	0.55152	-0.18538	0.07274	1.49191	-0.59732	0.05127	1.57931	-0.14976	0.14876	1.08034	-0.14836	0.16521	1.47863	0.00451	0.02151	1.49744	0.58394	0.00097	1.50825	0.45183	0.02154	1.57741	0.13113	-0.00077	1.51520	0.33579	0.14316	1.42178	-0.74940	0.13230	1.50493	-0.14295	-0.07108	1.31574	-0.01563	0.04962	1.42551	-0.88100	-0.05352	1.08804	-0.08779	0.03817	1.42933	-0.77193	0.09381	1.82864	0.06086	0.09763	1.51060	0.13733	0.14522	0.02535	0.09965	0.13043	0.04631	0.17442	0.08450	1.44558	0.70894	0.05329	0.99353	-0.20336	-0.07709	1.38019	0.09141	0.04250	0.57078	0.15943	0.10560	0.01625	-0.27656	-0.02256	0.08931	-0.21508	-0.06957	0.02956	-0.15963	0.04143	1.00142	0.17871	0.14177	0.04086	-0.22590	0.10462	1.43912	0.84448	-0.07729	0.03021	0.09938	0.18267	1.32049	0.00671	-0.04869	0.07468	0.14810	-0.00798	1.42202	0.84560	0.15496	0.76366	-0.17270	0.13811	0.77190	0.15087	0.01769	0.08929	-0.12346	0.01995	1.38621	0.44436	0.07323	0.53660	-0.05467	-0.06829	1.09329	0.06438	-0.01974	1.74659	0.05310	0.13016	1.08242	0.11582	-0.01729	1.44625	0.72446	-0.00034	0.10232	0.07054	0.06179	0.38117	0.14570	0.04786	0.53592	0.01963	0.05817	1.38505	-0.46140	0.06863	0.01489	0.21579	0.16372	1.40747	-0.87490	0.14548	0.01951	-0.14678 
5	0.033	-0.04093	1.51326	-0.16107	0.04950	1.50498	-0.46388	-0.00658	1.74190	-0.07359	-0.07003	1.47028	-0.02288	0.04318	1.52097	-0.35881	-0.06472	1.52034	0.12366	0.07753	0.38208	-0.18228	0.11211	1.82751	-0.06792	0.07237	0.55152	-0.18540	0.07273	1.49202	-0.59734	0.05125	1.57933	-0.14978	0.14870	1.08035	-0.14838	0.16519	1.47865	0.00450	0.02145	1.49754	0.58391	0.00093	1.50833	0.45181	0.02149	1.57744	0.13108	-0.00082	1.51526	0.33576	0.14312	1.42192	-0.74946	0.13228	1.50495	-0.14296	-0.07112	1.31576	-0.01565	0.04961	1.42565	-0.88105	-0.05359	1.08805	-0.08781	0.03816	1.42945	-0.77197	0.09375	1.82862	0.06084	0.09759	1.51063	0.13731	0.14521	0.02534	0.09964	0.13043	0.04631	0.17441	0.08449	1.44574	0.70895	0.05320	0.99355	-0.20339	-0.07713	1.38017	0.09140	0.04248	0.57080	0.15941	0.10560	0.01626	-0.27656	-0.02257	0.08930	-0.21509	-0.06957	0.02956	-0.15963	0.04139	1.00143	0.17868	0.14177	0.04087	-0.22590	0.10460	1.43932	0.84450	-0.07730	0.03021	0.09938	0.18264	1.32051	0.00670	-0.04869	0.07467	0.14810	-0.00801	1.42217	0.84559	0.15493	0.76367	-0.17271	0.13806	0.77190	0.15083	0.01769	0.08929	-0.12347	0.01988	1.38628	0.44436	0.07321	0.53660	-0.05468	-0.06835	1.09329	0.06436	-0.01977	1.74659	0.05309	0.13011	1.08244	0.11579	-0.01734	1.44643	0.72443	-0.00034	0.10232	0.07053	0.06177	0.38118	0.14569	0.04783	0.53592	0.01961	0.05816	1.38512	-0.46143	0.06863	0.01489	0.21578	0.16371	1.40764	-0.87494	0.14548	0.01951	-0.14679 
6	0.042	-0.04097	1.51329	-0.16110	0.04949	1.50505	-0.46390	-0.00661	1.74190	-0.07361	-0.07009	1.47030	-0.02290	0.04316	1.52103	-0.35883	-0.06470	1.52035	0.12359	0.07751	0.38209	-0.18229	0.11208	1.82751	-0.06793	0.07234	0.55152	-0.18542	0.07272	1.49212	-0.59736	0.05122	1.57935	-0.14979	0.14862	1.08035	-0.14840	0.16517	1.47867	0.00449	0.02140	1.49764	0.58388	0.00089	1.50841	0.45180	0.02143	1.57747	0.13104	-0.00086	1.51532	0.33574	0.14309	1.42206	-0.74952	0.13227	1.50498	-0.14298	-0.07116	1.31578	-0.01567	0.04962	1.42580	-0.88109	-0.05365	1.08805	-0.08782	0.03815	1.42958	-0.77201	0.09371	1.82862	0.06083	0.09755	1.51066	0.13729	0.14521	0.02534	0.09963	0.13043	0.04631	0.17441	0.08449	1.44592	0.70898	0.05312	0.99356	-0.20342	-0.07719	1.38018	0.09137	0.04245	0.57081	0.15939	0.10560	0.01626	-0.27655	-0.02257	0.08930	-0.21509	-0.06958	0.02956	-0.15964	0.04134	1.00145	0.17866	0.14176	0.04087	-0.22590	0.10459	1.43952	0.84451	-0.07731	0.03020	0.09938	0.18261	1.32053	0.00669	-0.04868	0.07466	0.14810	-0.00804	1.42232	0.84558	0.15489	0.76367	-0.17273	0.13801	0.77191	0.15079	0.01768	0.08929	-0.12347	0.01983	1.38636	0.44436	0.07318	0.53660	-0.05470	-0.06841	1.09329	0.06434	-0.01979	1.74659	0.05309	0.13005	1.08245	0.11576	-0.01738	1.44661	0.72440	-0.00034	0.10231	0.07053	0.06175	0.38119	0.14567	0.04779	0.53592	0.01959	0.05816	1.38519	-0.46148	0.06862	0.01490	0.21578	0.16370	1.40781	-0.87497	0.14548	0.01952	-0.14679 
